<?xml version="1.0" encoding="utf-8"?>
<!-- Generator: Adobe Illustrator 17.1.0, SVG Export Plug-In . SVG Version: 6.00 Build 0)  -->
<!DOCTYPE svg PUBLIC "-//W3C//DTD SVG 1.1//EN" "http://www.w3.org/Graphics/SVG/1.1/DTD/svg11.dtd">
<svg version="1.1" id="Layer_1" xmlns="http://www.w3.org/2000/svg" xmlns:xlink="http://www.w3.org/1999/xlink" x="0px" y="0px"
	 viewBox="0 0 17.2 14" enable-background="new 0 0 17.2 14" xml:space="preserve">
<g>
	<path fill="#666666" d="M1.7,8.4H0.2l1.1-6.6h-1l0.1-0.5c0.6,0,1.4-0.1,2.6-0.8L1.7,8.4z"/>
	<path fill="#666666" d="M7.1,3.3c0.1,0.1,0.2,0.1,0.3,0.1c0.5,0,0.7-0.4,1.1-0.5l0,0.2C8.2,3.5,7.7,3.9,7.1,4
		C6.9,6.1,5.7,7.1,4.7,7.1c-1.1,0-1.6-0.5-1.6-1.7c0-2.5,1.3-3.6,2.7-3.6C6.8,1.8,7.1,2.6,7.1,3.3z M6.3,4.1C6,4.1,5.9,3.9,5.9,3.7
		C5.9,3.4,6,3,6.3,2.9c0-0.3-0.1-0.5-0.4-0.5c-1,0-1.4,2.1-1.4,2.9c0,0.6,0.3,0.8,0.7,0.8C5.8,6.1,6.2,5.1,6.3,4.1z"/>
	<path fill="#666666" d="M12,2.6l0.1,0.2c-0.1,0.4-0.3,0.8-0.7,1.1C11.3,6,10.1,7.1,9.1,7.1C8,7.1,7.5,6.7,7.5,5.4
		c0-2.5,1.3-3.6,2.7-3.6c0.5,0,1,0.2,1,0.5c0,0.3-0.2,0.4-0.5,0.5c-0.1-0.2-0.2-0.4-0.5-0.4c-1,0-1.4,2.1-1.4,2.9
		c0,0.6,0.3,0.8,0.7,0.8c0.6,0,1-1.1,1.1-2.1c-0.2,0-0.3-0.2-0.3-0.4c0-0.4,0.4-0.8,0.7-0.8c0.2,0,0.4,0.1,0.4,0.3c0,0,0,0.1,0,0.1
		C11.7,3.1,11.8,2.9,12,2.6z"/>
	<path fill="#666666" d="M11.7,6.2c0-0.9,0.6-1.9,1.9-2.3C13,3.6,12.7,3,12.7,2.5c0-1,0.9-2,2.3-2c1.3,0,2,0.7,2,1.5
		c0,0.7-0.5,1.5-1.4,1.9c0.9,0.3,1.2,0.9,1.2,1.6c0,1.3-1.2,2.7-2.9,2.7C12.5,8.3,11.7,7.3,11.7,6.2z M15.1,5.8
		c0-0.6-0.2-1.2-0.7-1.6c-0.9,0.6-1.3,1.6-1.3,2.3c0,0.6,0.2,1,0.7,1C14.6,7.6,15.1,6.7,15.1,5.8z M15.6,1.7c0-0.4-0.2-0.7-0.5-0.7
		c-0.7,0-1.1,0.7-1.1,1.4c0,0.5,0.2,0.9,0.5,1.2C15.3,3.1,15.6,2.3,15.6,1.7z"/>
</g>
<g>
	<path fill="#B3B3B3" d="M4.1,9.3L4,9.6c0.2-0.2,0.5-0.3,0.7-0.3c0.3,0,0.4,0.2,0.4,0.4c0,0.2-0.2,0.5-0.5,0.5
		c-0.3,0-0.2-0.4-0.4-0.4c-0.2,0-0.3,0.1-0.4,0.2l-0.5,2.5l-0.9,0l0.6-3.2L4.1,9.3z"/>
	<path fill="#B3B3B3" d="M6.3,9.2l-0.5,2.8c0.4-0.2,0.7-0.5,0.9-1l0,0.5c-0.1,0.4-0.5,0.6-1,0.8L5.6,13c-0.2,0.9-0.7,1.1-1.1,1.1
		c-0.4,0-0.7-0.3-0.7-0.7c0-0.6,0.5-0.8,1-1l0.6-3.2L6.3,9.2z M4.4,13.5c0.1,0,0.3-0.1,0.3-0.5l0.1-0.4c-0.4,0.1-0.7,0.3-0.7,0.7
		C4.1,13.4,4.2,13.5,4.4,13.5z M6,7.9c0.3,0,0.5,0.2,0.5,0.5c0,0.3-0.2,0.5-0.5,0.5c-0.3,0-0.5-0.2-0.5-0.5C5.5,8.1,5.7,7.9,6,7.9z"
		/>
	<path fill="#B3B3B3" d="M9.5,9.2l0.3,1.3c0.3-0.3,0.6-0.7,0.6-1c0,0-0.1,0-0.1,0c-0.2,0-0.3-0.2-0.3-0.4c0-0.2,0.2-0.3,0.4-0.3
		c0.2,0,0.3,0.3,0.3,0.6c0,0.4-0.6,1-0.9,1.4l0.1,0.6c0.1,0.3,0.1,0.4,0.4,0.4c0.2,0,0.6-0.4,0.8-0.6l0.2,0c-0.3,0.3-1,1.2-1.4,1.2
		c-0.5,0-0.6-0.2-0.8-1c-0.5,0.5-0.9,1-1.7,1c-0.7,0-1-0.2-1-0.8c0-0.5,0.2-0.8,0.5-0.8c0.2-0.4,0.3-1,0.4-1.5l0.9-0.2l0,0.1
		c0,1.1,0.5,1.4,0.5,2.1c0,0.1,0,0.2,0,0.3c0.2-0.2,0.3-0.3,0.4-0.5L8.6,9.2L9.5,9.2z M7,11.6c-0.1,0-0.1,0-0.2-0.1
		c0,0.4,0.2,0.6,0.5,0.5c0.2,0,0.5-0.3,0.5-0.8c0-0.4-0.3-0.7-0.3-1.6c-0.1,0.3-0.2,0.7-0.3,1.1c0.1,0.1,0.2,0.2,0.2,0.4
		C7.3,11.4,7.2,11.6,7,11.6z"/>
	<path fill="#B3B3B3" d="M11.6,11.4c0.3,0,0.5,0.2,0.5,0.5c0,0.3-0.2,0.5-0.5,0.5c-0.3,0-0.5-0.2-0.5-0.5
		C11.1,11.7,11.3,11.4,11.6,11.4z"/>
	<path fill="#B3B3B3" d="M14.1,8.4c0,0-0.1,0.4-0.2,1l0.4,0l0,0.3l-0.4,0c-0.4,2.1-0.4,2.1-0.4,2.1c0,0.1,0.1,0.2,0.3,0.2
		s0.6-0.4,0.8-0.6l0.2,0c-0.3,0.3-1,1.2-1.4,1.2c-0.5,0-0.8-0.2-0.8-0.7c0-0.3,0.3-1.7,0.4-2.3l-0.2,0l0-0.3l0.2,0l0.2-0.9L14.1,8.4
		z"/>
	<path fill="#B3B3B3" d="M17.2,9.4L16,10.3c0,0,0.1,0,0.1,0c0.3,0,0.7,0.4,0.7,0.8c0,0,0,0.1,0,0.1l-0.1,0.4c0,0.1,0,0.2,0,0.3
		c0,0.1,0,0.2,0.2,0.2c0,0,0.1,0,0.2,0c-0.2,0.6-0.4,0.6-0.6,0.6c-0.4,0-0.6-0.3-0.6-0.7c0-0.1,0-0.2,0-0.3l0.1-0.3c0,0,0-0.1,0-0.1
		c0-0.2-0.1-0.4-0.3-0.4c-0.1,0-0.3,0-0.4,0.1l-0.3,1.8l-0.9,0l0.9-4.4l0.9-0.1l-0.4,2.3c0.4-0.4,1.1-1,1.1-1L17.2,9.4z"/>
</g>
</svg>
