<?xml version="1.0" encoding="utf-8"?>
<!-- Generator: Adobe Illustrator 17.1.0, SVG Export Plug-In . SVG Version: 6.00 Build 0)  -->
<!DOCTYPE svg PUBLIC "-//W3C//DTD SVG 1.1//EN" "http://www.w3.org/Graphics/SVG/1.1/DTD/svg11.dtd">
<svg version="1.1" id="Layer_1" xmlns="http://www.w3.org/2000/svg" xmlns:xlink="http://www.w3.org/1999/xlink" x="0px" y="0px"
	 viewBox="0 0 24 24" enable-background="new 0 0 24 24" xml:space="preserve">
<g id="Expanded">
	<g>
		<g>
			<path fill="#FFFFFF" d="M16.9,19H7.1V7.2h9.8V19z M7.7,18.4h8.6V7.8H7.7V18.4z"/>
		</g>
		<g>
			<path fill="#FFFFFF" d="M15.2,7.8H8.8V5.5h6.3V7.8z M9.4,7.2h5.2V6.1H9.4V7.2z"/>
		</g>
		<g>
			<path fill="#FFFFFF" d="M9.7,17c-0.2,0-0.3-0.1-0.3-0.3V9.5c0-0.2,0.1-0.3,0.3-0.3c0.2,0,0.3,0.1,0.3,0.3v7.2
				C10,16.9,9.9,17,9.7,17z"/>
		</g>
		<g>
			<path fill="#FFFFFF" d="M12,17c-0.2,0-0.3-0.1-0.3-0.3V9.5c0-0.2,0.1-0.3,0.3-0.3s0.3,0.1,0.3,0.3v7.2C12.3,16.9,12.2,17,12,17z"
				/>
		</g>
		<g>
			<path fill="#FFFFFF" d="M14.3,17c-0.2,0-0.3-0.1-0.3-0.3V9.5c0-0.2,0.1-0.3,0.3-0.3c0.2,0,0.3,0.1,0.3,0.3v7.2
				C14.6,16.9,14.5,17,14.3,17z"/>
		</g>
		<g>
			<rect x="5.1" y="7.2" fill="#FFFFFF" width="13.8" height="0.6"/>
		</g>
	</g>
</g>
</svg>
